<?xml version="1.0" encoding="UTF-8" standalone="no"?>
<svg
   xmlns:dc="http://purl.org/dc/elements/1.1/"
   xmlns:cc="http://creativecommons.org/ns#"
   xmlns:rdf="http://www.w3.org/1999/02/22-rdf-syntax-ns#"
   xmlns:svg="http://www.w3.org/2000/svg"
   xmlns="http://www.w3.org/2000/svg"
   xmlns:sodipodi="http://sodipodi.sourceforge.net/DTD/sodipodi-0.dtd"
   xmlns:inkscape="http://www.inkscape.org/namespaces/inkscape"
   version="1.1"
   id="svg2"
   xml:space="preserve"
   width="4266.6665"
   height="2666.6667"
   viewBox="0 0 4266.6665 2666.6667"
   sodipodi:docname="9817.eps"><metadata
     id="metadata8"><rdf:RDF><cc:Work
         rdf:about=""><dc:format>image/svg+xml</dc:format><dc:type
           rdf:resource="http://purl.org/dc/dcmitype/StillImage" /></cc:Work></rdf:RDF></metadata><defs
     id="defs6" /><sodipodi:namedview
     pagecolor="#ffffff"
     bordercolor="#666666"
     borderopacity="1"
     objecttolerance="10"
     gridtolerance="10"
     guidetolerance="10"
     inkscape:pageopacity="0"
     inkscape:pageshadow="2"
     inkscape:window-width="640"
     inkscape:window-height="480"
     id="namedview4" /><g
     id="g10"
     inkscape:groupmode="layer"
     inkscape:label="ink_ext_XXXXXX"
     transform="matrix(1.3333333,0,0,-1.3333333,0,2666.6667)"><g
       id="g12"
       transform="scale(0.1)"><path
         d="M 0,0 H 32000 V 20000 H 0 Z"
         style="fill:#f8fcff;fill-opacity:1;fill-rule:nonzero;stroke:none"
         id="path14" /><path
         d="m 3792.98,1733.8 c 0,0 -1142.06,2043.4 464.17,3474.5 1606.23,1431.1 -1037.21,2646.9 -554.3,5822.5 482.91,3175.7 2621.01,4000.8 3608.92,4246.5 2476.5,615.8 1233.67,4604.5 6299.73,2962.6 2460.6,-797.5 4097.5,-593 5676.3,-388.4 1671.5,216.6 3277.8,433.3 5727.4,-539.7 4763.1,-1891.7 2228.8,-6075.9 2621.4,-6803.7 392.7,-727.7 3569.4,-3162.1 713.9,-8780.3 l -24557.52,6"
         style="fill:#ebf3fa;fill-opacity:1;fill-rule:nonzero;stroke:none"
         id="path16" /><path
         d="m 18792.2,8128.3 c 0,0 1431.1,2875.2 3931.9,2642.3 0,0 484.9,-52.6 520.2,-608.3 25.7,-404.4 -463.8,-400.3 -974.4,-396.2 -191.2,1.5 -385.3,3.1 -556.4,-16.8 -628.1,-73 -2185.9,-641.6 -2921.3,-1621"
         style="fill:#cddff9;fill-opacity:1;fill-rule:nonzero;stroke:none"
         id="path18" /><path
         d="m 19616.7,9047 c 0,0 -74.7,2068.1 1412.7,2705.8 0,0 290.6,119.5 481.7,-184.2 191,-303.8 -406.4,-470.2 -739.5,-704.9 -333.1,-234.7 -1040,-1036 -1154.9,-1816.7"
         style="fill:#cddff9;fill-opacity:1;fill-rule:nonzero;stroke:none"
         id="path20" /><path
         d="m 16460.8,12815.6 c 0,0 140,2690.7 2142.2,3347.5 0,0 53.2,16.6 131.1,16.6 133.1,0 338.1,-48.4 472.5,-310.7 213,-415.8 -580.9,-563.3 -1039.8,-829.5 -458.9,-266.2 -1467.5,-1224.4 -1706,-2223.9"
         style="fill:#d9e5fc;fill-opacity:1;fill-rule:nonzero;stroke:none"
         id="path22" /><path
         d="m 16326.5,13290 c 0,0 -601.8,2098.4 759,3129.2 0,0 96,70.4 231.6,70.4 90.7,0 199.1,-31.5 308.4,-136.7 272.8,-262.5 -296.6,-584.7 -578,-909.5 -281.5,-324.9 -801.7,-1324.8 -721,-2153.4"
         style="fill:#d9e5fc;fill-opacity:1;fill-rule:nonzero;stroke:none"
         id="path24" /><path
         d="m 12431.6,4737 -189.1,28.9 c 0,0 3,1326.4 -390.1,2050.5 -15.7,26.5 -38.4,64.5 -66.6,110.9 v 0.1 c -68.1,102 -114.8,177.5 -145.2,232.4 -205.1,320 -495.2,734.4 -664.5,809.2 0,0 16.6,30.3 28.6,87 -9.1,-27.8 -18.6,-56.7 -28.6,-87 -203.2,-618.5 -1432.92,-909.8 -2320.4,-909.8 -110.01,0 -214.94,4.5 -311.82,13.4 -878.41,80.6 -533.83,364.6 -119.44,809.4 414.39,444.8 1394,449 1661.24,635.1 194.02,135.1 17.4,228.8 -310.64,228.8 -123.83,0 -269.31,-13.3 -424.48,-42.9 -566.22,-107.8 -783.22,-712.4 -1695.83,-903.6 -49.63,-10.4 -99.24,-15.3 -148.72,-15.3 -860.41,0 -1676.21,1486.1 -1676.21,1486.1 75.36,-14.5 156.36,-21.1 240.87,-21.1 657.12,0.1 1523.07,399.6 1538.6,599.2 6.3,81 -208.13,105.6 -498.06,105.6 -224.39,0 -494.03,-14.8 -741.42,-29.5 -247.44,-14.8 -472.67,-29.5 -608.31,-29.5 -40.81,0 -73.53,1.3 -96.28,4.4 -271.71,36.7 -796.77,513.9 -637.96,1603.2 127.88,877.1 1332.72,962.5 1797.36,962.5 112.42,0 181.58,-5 181.58,-5 0,0 1431.09,-1715.6 1788.07,-1720.5 0.52,0 0.98,0 1.5,0 351.63,0.2 -941.07,1703.6 -941.07,1703.6 67,14.1 145.43,20.4 232.51,20.4 788.2,0 2277.91,-521.8 2277.91,-521.8 0,0 143.7,-2090.3 476.3,-2090.2 6.4,0 12.9,0.8 19.4,2.3 346.4,83.3 -230.1,1916.6 -230.1,1916.6 683.2,-124.7 1391.3,-827 1391.3,-827 920,-1169.9 -617.5,-2279.1 -617.5,-2279.1 0,0 68,-751.5 632.7,-1559.2 0,0 841.9,-1004 594.4,-2368.1"
         style="fill:#d9e5fc;fill-opacity:1;fill-rule:nonzero;stroke:none"
         id="path26" /><path
         d="m 10000.1,6901.4 c 0,0 1398,-763.6 1239.8,-1015 -158.1,-251.3 -1496.42,963.2 -1496.42,963.2 0,0 -1463.19,-682.5 -1782.09,-1159.2 0,0 1754.49,-270 1539.33,-474.7 -215.17,-204.7 -2053.91,-8.6 -2053.91,-8.6 0,0 -1158.74,-979.3 -626.35,-1724.6 532.39,-745.2 1119.41,-725.9 1302.16,-589.9 182.75,136 1066.81,1245 1185.98,1099.8 119.18,-145.1 -259.45,-1072.8 -726.04,-1381.1 0,0 1499.14,-465.6 1932.14,179.6 433,645.2 214.1,1133.8 489,1527.6 274.8,393.9 596.2,583 544.3,316.1 -51.9,-267 -632.3,-839.1 -622.9,-1346.7 9.5,-507.5 -32.1,-878.1 536.9,-415.6 569,462.4 1314.4,1518.3 1050.2,2067.8 -11.5,24 -22.5,46.8 -33.1,68.7 25.5,-40.9 33.1,-68.7 33.1,-68.7 143.7,53.6 554.8,-26.1 861,-98.6 49.7,-15.3 120.9,-33.4 220.1,-54.9 h 0.1 c 43.4,-11.4 78.8,-21 103.4,-27.8 650.6,-205.4 1412.1,-1002.1 1412.1,-1002.1 l 129.1,92.6 c -637.7,961.5 -1716.4,1073.7 -1716.4,1073.7 -800.8,155.7 -1273.6,566.6 -1273.6,566.6 0,0 276.4,1558.9 -944.2,1725.1 0,0 -825.5,9.2 -1303.7,-313.3"
         style="fill:#d2e2f9;fill-opacity:1;fill-rule:nonzero;stroke:none"
         id="path28" /><path
         d="m 21993,2970 c -108.7,0 -260.5,27.7 -466.6,88 -983.2,287.6 -2515,1243.5 -2472.9,2093.4 1.9,37.1 3.6,72.4 5.3,106.3 -10.6,-66.5 -5.3,-106.3 -5.3,-106.3 -214,-8.7 -699.8,-333.4 -1054.6,-592.1 l -0.5,-0.4 c -55.6,-46.4 -137.4,-108.2 -253,-189.2 l -0.3,-0.2 -0.2,-0.1 c -49.1,-37.7 -89,-68.9 -117,-90.9 l -1.8,-1.5 -0.8,-0.7 c -43.1,-36.4 -85.3,-75.7 -126.8,-117.5 l -186,98.5 c 256.6,220 451,326.5 451,326.5 v 0 c 946.3,633.2 1332.2,1417.5 1332.2,1417.5 0,0 -858.8,1327.6 -228.3,2265.7 -49.9,-87.8 -75.2,-138.7 -75.2,-138.7 174,231.7 393.9,440.3 636.7,624.9 186.1,74.2 830,312.3 1435.8,312.3 122.6,0 243.7,-9.8 359,-32.6 0,0 -1385.4,-1738.2 -1045.6,-1976.2 16.8,-11.7 35.4,-17.3 55.5,-17.3 387,0.1 1348.5,2065.6 1348.5,2065.6 0,0 2253.3,-87.5 2922.3,-528.7 0,0 -2111.9,-1295.7 -1724,-1442.8 21.6,-8.2 49,-12.1 81.6,-12 551.4,0.1 2566.7,1111.1 2566.7,1111.1 0,0 2022.4,-634 1741.2,-1880.7 -254.3,-1127 -904.6,-1474.2 -1255.4,-1474.2 -37.3,0 -71.2,3.9 -100.9,11.3 -273,67.3 -1663,816.5 -2034.1,816.5 -48.8,0 -80,-13 -88.7,-42.2 -74.7,-251.2 915.6,-1240.4 1683.3,-1384.9 0,0 -1142.6,-960.2 -2051.8,-960.2 -192.2,0 -374.2,43 -532.5,147.1 -907.1,596.2 -890.3,1343.2 -1457.6,1701.5 -321.6,203.2 -626.8,313.5 -792.3,313.5 -126.4,0 -171.3,-64.4 -79.7,-201 211.6,-315.4 1268.8,-738 1531.8,-1396.2 207.9,-520.2 410.4,-913.1 1,-913.1"
         style="fill:#d9e5fc;fill-opacity:1;fill-rule:nonzero;stroke:none"
         id="path30" /><path
         d="m 18792.2,8128.3 c 0,0 25.3,50.9 75.2,138.7 115.1,171.2 279.8,329.6 508.4,464.4 0,0 18.8,8.1 53.1,21.8 -242.8,-184.6 -462.7,-393.2 -636.7,-624.9"
         style="fill:#c4d7fb;fill-opacity:1;fill-rule:nonzero;stroke:none"
         id="path32" /><path
         d="m 21796,12707.1 c 194.7,-513.2 1863.9,-1860.9 1863.9,-1860.9 0,0 544.1,442 1047.9,918.1 377.1,352.3 729.5,723.3 813,942.8 197.8,510 -12.4,1239.5 -741.9,1363.1 -726.4,123.7 -1119,-636.8 -1119,-636.8 0,0 -392.5,760.5 -1122,636.8 -126.8,-21.6 -238.1,-61.8 -333.9,-117.5 -454.4,-253.4 -568.7,-825.3 -408,-1245.6"
         style="fill:#f78248;fill-opacity:1;fill-rule:nonzero;stroke:none"
         id="path34" /><path
         d="m 22466.5,12081.1 -172.2,903.9 -75.1,-386.2 h -1014.5 v 61.1 h 964.2 l 126.1,648.1 180,-945.2 81,319.1 h 175.1 l 119.5,556.4 153,-848.4 80.4,324.8 h 361.9 l 133.1,436.7 116.5,-764.6 93.7,327.9 h 299.4 l 87.9,479.5 189,-754.3 68.4,274.8 h 387.2 l 20.3,-228.9 213.2,833.6 140.1,-606.9 h 629.7 v -61 h -678.2 l -94.6,409.7 -239.6,-936.6 -46.8,529.1 h -283.6 l -116,-465.7 -179.8,718 -46.3,-252.3 h -304.3 l -157.8,-552.9 -118.3,776 -68,-223.1 h -359.3 l -137.6,-555.9 -148.8,825.4 -64.9,-302.4 h -177 l -137,-539.7"
         style="fill:#ffffff;fill-opacity:1;fill-rule:nonzero;stroke:none"
         id="path36" /><path
         d="M 10787.6,13817.1 C 11071,13504 11658,12903.4 12339,12480.3 l -866.3,-795 c 0,0 -1272,598.5 -1652.88,1510.2 -82.12,196.6 1.21,423.5 190.48,521.3 l 344.5,178.2 c 145.4,75.2 322.9,43.4 432.8,-77.9"
         style="fill:#ea7147;fill-opacity:1;fill-rule:nonzero;stroke:none"
         id="path38" /><path
         d="m 18531,12688.4 c 0,0 116.5,2068.5 -2657.3,1960.1 C 13099.9,14540.1 12339,12480.3 12339,12480.3 l 6192,208.1"
         style="fill:#ff8c5a;fill-opacity:1;fill-rule:nonzero;stroke:none"
         id="path40" /><path
         d="m 14956.9,12715.7 c 0,0 -1290.4,3947.3 -4091.4,4360.3 -178.2,26.3 -355.5,-54.5 -455.5,-204.3 l -301.8,-451.5 c -174.02,-260.4 -63.5,-616.1 228.8,-729 767.8,-296.6 2085.8,-1179.8 2961.6,-3807.2 l 1658.3,831.7"
         style="fill:#ea7147;fill-opacity:1;fill-rule:nonzero;stroke:none"
         id="path42" /><path
         d="m 18124.4,12566 c 0,0 1051.3,3215.7 3332.6,3572.2 158.8,24.8 317.5,-46.6 406.8,-180.3 l 193.6,-289.6 c 162.7,-243.4 63,-574.4 -207.2,-687.5 -636.7,-266.5 -1671,-1012.2 -2365.9,-3096.8 l -1359.9,682"
         style="fill:#ea7147;fill-opacity:1;fill-rule:nonzero;stroke:none"
         id="path44" /><path
         d="M 20740.9,9342.9 C 20683.6,5895 18801,1739.7 16826.9,1739.7 c -200.7,0 -523.5,-33.6 -717.3,0 -4140.9,718.6 -6520.71,8851 -4242.2,10894.6 1883,1688.9 3994.4,979.6 3994.4,979.6 2818.1,833.6 4219.5,-412.6 4691.5,-2370.2 54,-223.8 95.9,-456.8 126.3,-697.3 13.3,-104.3 24.3,-209.9 33.2,-316.8 24.2,-287.9 33.2,-584.6 28.1,-886.7"
         style="fill:#f78248;fill-opacity:1;fill-rule:nonzero;stroke:none"
         id="path46" /><path
         d="m 15861.8,13613.9 c 0,0 -1289.4,844.9 -2725.8,411.2 -1436.4,-433.6 -1939.9,-2524 -1939.9,-2524 0,0 340.9,-538.5 1343.7,626.8 1002.7,1165.5 3322,1486 3322,1486"
         style="fill:#ea642f;fill-opacity:1;fill-rule:nonzero;stroke:none"
         id="path48" /><path
         d="m 12910.8,12480.3 c 0,0 875.7,406.5 1309.3,-108.4 433.6,-515 135.5,-2656.1 975.7,-3767.3 840.2,-1111.2 1057,-1463.5 1084.1,-2276.6 0,0 61.6,1213.3 -758.9,2339.9 -820.4,1126.6 -667.2,3591.5 -849.2,4101.5 -182,509.9 509.5,708.1 509.5,708.1 0,0 -834.7,256.5 -1322.6,0 -487.8,-256.4 -947.9,-997.2 -947.9,-997.2"
         style="fill:#ea642f;fill-opacity:1;fill-rule:nonzero;stroke:none"
         id="path50" /><path
         d="m 13804.5,6897.2 c -62.1,-74.9 1098.3,1757.9 927,2765.8 l 225.4,-308.5 c 0,0 76.3,-975.7 -1152.4,-2457.3"
         style="fill:#ea642f;fill-opacity:1;fill-rule:nonzero;stroke:none"
         id="path52" /><path
         d="m 14671.8,11884 c 0,0 415.6,-400 1427.4,-507.1 1011.8,-107.2 1517.7,-504.7 1698.4,-1263.6 0,0 -284.6,998.3 -1395.7,998.3 -1111.3,0 -1730.1,406.6 -1730.1,406.6 v 365.8"
         style="fill:#ea642f;fill-opacity:1;fill-rule:nonzero;stroke:none"
         id="path54" /><path
         d="m 20679.6,10546.4 c -167.3,-67.9 -351.9,-229.6 -502,-579.1 -148.1,-345.2 -1487.9,-1431.3 -1666,-2382.1 -175,-935.8 -799.7,-1480.2 -819.1,-1496.9 397,400.6 471.6,678.1 632.3,1631 19.5,115.9 53.2,230.9 97.6,344.4 42.6,108.9 94.9,216.3 154.1,321.7 149.1,265.3 341.4,517.3 528.3,745.9 54.9,67.2 109.3,132.3 162,195.1 233.4,278.3 433.9,512.2 495.1,679.7 199.5,545 567.4,996.3 791.4,1237.6 54,-223.8 95.9,-456.8 126.3,-697.3"
         style="fill:#ea642f;fill-opacity:1;fill-rule:nonzero;stroke:none"
         id="path56" /><path
         d="m 16800.3,7608.4 c -67.4,-4.3 1410.4,282.9 1837.7,849.4 l -48.4,-260.8 c 0,0 -456.2,-503.2 -1789.3,-588.6"
         style="fill:#ea642f;fill-opacity:1;fill-rule:nonzero;stroke:none"
         id="path58" /><path
         d="m 19496.8,9358.1 c 0,0 -380.4,-124.8 -1045.2,113.1 -664.9,238 -1101,142 -1442.6,-278 0,0 478.7,538.3 1173.4,203.4 694.7,-334.9 1204.1,-267.2 1204.1,-267.2 l 110.3,228.7"
         style="fill:#ea642f;fill-opacity:1;fill-rule:nonzero;stroke:none"
         id="path60" /><path
         d="m 19676.1,12186 c 0,0 -639.9,1066 -1341.8,1125.5 -701.9,59.5 -975.5,-71.4 -904.1,-380.7 71.4,-309.3 628.3,-207.7 1016,-526.2 387.8,-318.5 1393.9,-796.9 1229.9,-218.6"
         style="fill:#ff996c;fill-opacity:1;fill-rule:nonzero;stroke:none"
         id="path62" /><path
         d="m 13477.1,4880.6 c 0,0 728.9,-1822.8 1711.3,-2170.7 982.4,-347.9 1363.1,-87 1259.9,313.1 -103.2,400.1 -557.6,221.8 -1186.1,815.4 -628.4,593.7 -1753.4,1769.1 -1785.1,1042.2"
         style="fill:#e8672e;fill-opacity:1;fill-rule:nonzero;stroke:none"
         id="path64" /><path
         d="m 11214.7,6036 c -148.1,0 -295.1,52.2 -439.4,156.1 -399.2,287.7 -776.01,960.3 -1120.01,1999 -255.2,770.6 -357.97,1387.6 -359.36,1394.6 l -21.62,158.3 c 1.38,-6.9 180.83,-760.2 434.5,-1526 233.03,-703.4 612.19,-1615 1095.29,-1963.1 204.9,-147.6 415.3,-183.7 625.3,-107.3 863.1,314.3 702.2,3132.3 700.4,3160.7 l 57.5,5.5 c 0.5,-7.2 43,-730.2 -24.8,-1483.6 -40,-444.2 -110.1,-812.4 -208.2,-1094.5 -124.8,-358.8 -296,-580.1 -508.9,-657.6 -77,-28.1 -154,-42.1 -230.7,-42.1"
         style="fill:#efcbab;fill-opacity:1;fill-rule:nonzero;stroke:none"
         id="path66" /><path
         d="m 8153.6,7108.1 c 0,0 19.57,1.6 49.7,-15.1 30.19,-8.3 126.67,-17.9 145.57,-14.9 35.98,5.9 27.57,-39.8 1.03,-62 -8.86,-7.4 -49.59,-2.4 -61.56,-5.1 41.74,-58.4 87.27,-151.7 127.34,-301.4 0,0 35.81,-114.3 -77.93,-58 -76.02,37.7 -85.03,81.4 -191.35,136.2 -106.32,54.7 -178.57,154.2 -170.67,242.2 l -30.68,95 142.48,93.5 66.07,-110.4"
         style="fill:#91cecf;fill-opacity:1;fill-rule:nonzero;stroke:none"
         id="path68" /><path
         d="m 8249.73,10462.5 c 0,0 -632.08,-441.9 -929.73,-1709.2 -90.25,-384.3 591.26,-1697.2 591.26,-1697.2 0,0 179.68,43.3 203.23,164.1 0,0 -192.42,1068 -251.97,1256.3 -32.98,104.3 617.94,690.5 702.19,983.5 84.25,293.1 -314.98,1002.5 -314.98,1002.5"
         style="fill:#91cecf;fill-opacity:1;fill-rule:nonzero;stroke:none"
         id="path70" /><path
         d="m 7403.73,2165.3 c 0,0 26.32,-424.6 108.47,-430.7 10.92,-0.8 416.64,-0.8 416.64,-0.8 l 517.91,3 c 0,0 -3.39,124.8 -154.78,151.2 -151.39,26.4 -404.78,132.8 -496.49,332.8 -96.48,210.5 -391.75,-55.5 -391.75,-55.5"
         style="fill:#163560;fill-opacity:1;fill-rule:nonzero;stroke:none"
         id="path72" /><path
         d="m 7373.87,2135.8 c 0,0 157.44,-52.7 280.37,-52.7 137.11,0 261.73,37.4 261.73,37.4 0,0 29.65,286.6 192.76,918.2 85.53,331.1 207.65,756.7 381.4,1285.6 480.4,1461.8 626.49,2316.9 639.82,2397.9 0.71,4.3 1,6.4 1,6.4 l -1.57,0.7 -1476.94,648.5 c 0,0 182.54,-2014.6 -50.35,-2787.9 -32.62,-108.1 -60.57,-234.1 -84.54,-370.5 -147.08,-840 -143.68,-2083.6 -143.68,-2083.6"
         style="fill:#2b478b;fill-opacity:1;fill-rule:nonzero;stroke:none"
         id="path74" /><path
         d="m 7517.55,4219.4 591.18,-1180.7 c 85.53,331.1 207.65,756.7 381.4,1285.6 480.4,1461.8 626.49,2316.9 639.82,2397.9 -0.14,2.4 -0.28,4.7 -0.57,7.1 l -1476.94,648.5 c 0,0 182.54,-2014.6 -50.35,-2787.9 -32.62,-108.1 -60.57,-234.1 -84.54,-370.5"
         style="fill:#233862;fill-opacity:1;fill-rule:nonzero;stroke:none"
         id="path76" /><path
         d="m 8557.29,2165.3 c 0,0 26.33,-424.6 108.48,-430.7 10.92,-0.8 416.64,-0.8 416.64,-0.8 l 517.91,3 c 0,0 -3.39,124.8 -154.78,151.2 -151.39,26.4 -404.78,132.8 -496.49,332.8 -96.48,210.5 -391.76,-55.5 -391.76,-55.5"
         style="fill:#163560;fill-opacity:1;fill-rule:nonzero;stroke:none"
         id="path78" /><path
         d="m 9394.66,7330.3 c 0,0 19.19,-1305.5 -206.69,-2908.4 -225.88,-1603 -149.31,-2283.4 -149.31,-2283.4 0,0 -155.18,-50.3 -217.82,-55.4 -159.56,-13 -323.17,37.4 -323.17,37.4 0,0 -323.3,1603.6 -230.6,2405.9 92.69,802.3 -442.72,2753.1 -442.72,2753.1 l 1570.31,50.8"
         style="fill:#2b478b;fill-opacity:1;fill-rule:nonzero;stroke:none"
         id="path80" /><path
         d="m 8982.51,10293.3 c 0,-16.1 0.12,-27.3 0.96,-32 l -347.86,-64.9 -288.27,189 c 0,0 15.59,29.7 33.44,83.1 2.49,7.5 4.99,15.5 7.49,23.9 14.28,46.8 28.79,107.7 37.12,179.7 7.26,62.6 9.87,133.6 3.69,211.3 -0.24,3.7 -0.6,7.3 -0.95,11.2 -0.24,3 -0.84,9.2 -1.55,17.3 -3.57,37.6 -10.95,117 -11.18,118.9 l 120.51,-53.1 24.51,-10.8 c 0,0 24.86,-5.1 62.1,-14.4 36.16,-9.1 84.11,-22.3 132.29,-38.6 76.85,-26.2 154.18,-60.8 184.4,-100.6 4.52,-6 7.97,-11.9 10.23,-18.1 1.07,-2.8 2.14,-5.8 3.09,-8.9 16.78,-51.2 24.99,-125.5 28.79,-202.1 2.15,-43.1 2.86,-87 2.98,-127.9 0.12,-43.1 -0.6,-82.9 -1.07,-115.4 -0.36,-18.6 -0.6,-34.6 -0.72,-47.6"
         style="fill:#ffb27d;fill-opacity:1;fill-rule:nonzero;stroke:none"
         id="path82" /><path
         d="m 9480.77,7273.9 c -5.94,-689.2 -51.84,-2301.2 -85.73,-2333.9 -358.84,-346.4 -1937.55,95 -2021.25,476.7 -83.56,381.5 318.14,4893.8 931.12,5074 82.28,24.1 396.15,-59.4 607.41,-121.3 128.74,-37.8 229.39,-138.1 268.47,-266.4 34.18,-112.3 75.11,-262.4 107.96,-429.4 8.54,-43.1 23.32,-172.9 40.98,-350 17.38,-172.7 37.65,-390.7 57.64,-617.1 22.15,-250.1 43.88,-510.8 61.39,-732.5 13.04,-167.4 23.75,-312.5 29.98,-414.4 2.61,-42 3.19,-144.6 2.03,-285.7"
         style="fill:#abddda;fill-opacity:1;fill-rule:nonzero;stroke:none"
         id="path84" /><path
         d="m 8981.32,10584.2 c -117.54,42.2 -321.21,125.7 -443.75,226.4 h -0.11 c -31.17,25.8 -57.11,52.5 -75.07,80 -1.67,2.6 -3.22,5.1 -4.76,7.8 -32.36,54.4 6.78,76.1 78.28,79.3 8.92,0.5 18.32,0.6 28.2,0.5 l 58.41,-25.7 117.54,-51.6 199.15,-87.6 26.65,-11.8 c 0,0 0.83,-4.4 2.5,-12.5 -5.12,-0.9 -10.35,-1.9 -15.83,-2.7 16.78,-51.2 24.99,-125.5 28.79,-202.1"
         style="fill:#fca56b;fill-opacity:1;fill-rule:nonzero;stroke:none"
         id="path86" /><path
         d="m 9096.13,10818.8 c 0,0 -16.06,-5 -43.54,-11.9 -0.95,-0.3 -2.02,-0.5 -3.1,-0.7 -8.56,-2.2 -18.32,-4.4 -28.9,-6.8 -2.39,-0.5 -4.89,-1 -7.38,-1.6 -13.68,-2.9 -28.67,-5.9 -44.85,-8.8 -5.12,-0.9 -10.35,-1.9 -15.83,-2.7 -117.18,-19.6 -284.21,-31.3 -414.96,24.3 h -0.11 c -40.57,17.2 -77.57,40.9 -108.38,72.8 -16.9,17.2 -31.89,36.8 -44.5,59.1 -12.61,21.6 -22.96,45.9 -30.93,72.9 -115.75,392.3 -274.58,631.1 120.63,772.5 353.69,126.5 488.84,38.5 563.79,-68.4 8.92,-12.6 16.9,-25.5 24.27,-38.2 70.43,-121.6 193.8,-801.5 33.79,-862.5"
         style="fill:#ffb27d;fill-opacity:1;fill-rule:nonzero;stroke:none"
         id="path88" /><path
         d="m 9037.71,11719 c 0,0 -39.97,-456.3 -134.35,-436.5 -94.37,19.8 -179.96,34.5 -166.14,-103.1 13.82,-137.5 1.79,-331.6 -222.53,-358.2 -289.84,-34.3 -632.61,763.2 -552.71,905.2 230.54,409.8 1408.94,492.5 1075.73,-7.4"
         style="fill:#163560;fill-opacity:1;fill-rule:nonzero;stroke:none"
         id="path90" /><path
         d="m 11354.7,10011.9 c 0,467.3 378.9,846.2 846.2,846.2 467.3,0 846.2,-378.9 846.2,-846.2 0,-467.3 -378.9,-846.2 -846.2,-846.2 -467.3,0 -846.2,378.9 -846.2,846.2"
         style="fill:#fcecdb;fill-opacity:1;fill-rule:nonzero;stroke:none"
         id="path92" /><path
         d="m 11599.8,9971.5 c 0,296.4 240.2,536.6 536.6,536.6 296.3,0 536.6,-240.2 536.6,-536.6 0,-296.4 -240.3,-536.6 -536.6,-536.6 -296.4,0 -536.6,240.2 -536.6,536.6"
         style="fill:#efcbab;fill-opacity:1;fill-rule:nonzero;stroke:none"
         id="path94" /><path
         d="m 9077.23,10365 -20.68,27 c 0.74,0.8 62.76,63.4 25.93,236.2 -38.14,178.9 -263.41,546.8 -265.68,550.5 l 24.68,15.1 c 9.37,-15.2 230.15,-375.8 269.32,-559.5 40.24,-188.8 -29.95,-265.5 -33.57,-269.3"
         style="fill:#efcbab;fill-opacity:1;fill-rule:nonzero;stroke:none"
         id="path96" /><path
         d="M 9387.37,8706.5 C 9018.25,8823.5 8564.7,9460 8564.7,9460 l 765.03,-136.4 c 17.38,-172.7 37.65,-390.7 57.64,-617.1"
         style="fill:#91cecf;fill-opacity:1;fill-rule:nonzero;stroke:none"
         id="path98" /><path
         d="m 11928.2,9664.6 c 0,0 -1.2,19.6 16.4,49.4 9.1,30 27.1,118.6 24.8,137.6 -7.3,60.2 37.2,48 54.4,-2.6 3.7,-10.9 2.7,-40 5.1,-52.1 59.6,40.2 154.2,83.3 305.1,119.3 0,0 115.3,32.7 55.9,-79.7 -39.7,-75.1 -83.7,-82.9 -141.4,-187.9 -57.7,-105 -159.1,-174.7 -247,-164.3 l -95.8,-28.2 -89.8,145.3 112.3,63.2"
         style="fill:#ffb27d;fill-opacity:1;fill-rule:nonzero;stroke:none"
         id="path100" /><path
         d="m 8536.99,10136.4 c 0,0 -797.91,-1020.3 1654.71,-1322.3 392.3,-48.3 1782,606.3 1782,606.3 0,0 -38.5,181.2 -158.7,208.1 0,0 -1311.8,-138.5 -1412.1,-210.5 -89,-63.8 -1061.48,650.4 -1352.47,742.8 -291,92.5 -513.44,-24.4 -513.44,-24.4"
         style="fill:#abddda;fill-opacity:1;fill-rule:nonzero;stroke:none"
         id="path102" /><path
         d="m 8778.38,11186.3 c 0,28 22.73,50.7 50.76,50.7 28.04,0 50.76,-22.7 50.76,-50.7 0,-28.1 -22.72,-50.8 -50.76,-50.8 -28.03,0 -50.76,22.7 -50.76,50.8"
         style="fill:#163560;fill-opacity:1;fill-rule:nonzero;stroke:none"
         id="path104" /><path
         d="m 9037,10387.9 c 0,0 59.55,52.2 47.59,165 -11.96,112.9 -69.06,234.8 -88.72,289 -0.67,1.8 9.66,19.2 33.45,16.2 0,0 111.04,-227.1 98.89,-345.3 -10.76,-104.8 -65.72,-190.4 -65.72,-190.4 l -25.49,65.5"
         style="fill:#163560;fill-opacity:1;fill-rule:nonzero;stroke:none"
         id="path106" /><path
         d="m 8945.51,10480.8 c -8.08,3.4 -466.55,209 -520.17,191.3 -53.61,-17.7 -120.44,-181.4 -120.44,-181.4 l 782.57,-228 c 0,0 -38.83,174.6 -141.96,218.1"
         style="fill:#91cecf;fill-opacity:1;fill-rule:nonzero;stroke:none"
         id="path108" /><path
         d="M 19499,5451.1 V 2357.3 c 0,-270.5 -219.4,-489.8 -489.9,-489.8 -270.6,0 -489.8,219.3 -489.8,489.8 v 3093.8 h 979.7"
         style="fill:#f7d2b0;fill-opacity:1;fill-rule:nonzero;stroke:none"
         id="path110" /><path
         d="m 19009.1,2009.6 v 0 c 201,0 363.9,162.9 363.9,363.9 v 1405.7 h -727.9 V 2373.5 c 0,-201 163,-363.9 364,-363.9"
         style="fill:#d14842;fill-opacity:1;fill-rule:nonzero;stroke:none"
         id="path112" /><path
         d="M 18000,5451.1 V 2357.3 c 0,-270.5 -219.4,-489.8 -489.9,-489.8 -270.6,0 -489.8,219.3 -489.8,489.8 v 3093.8 h 979.7"
         style="fill:#f7d2b0;fill-opacity:1;fill-rule:nonzero;stroke:none"
         id="path114" /><path
         d="m 17510.1,2009.6 v 0 c 201,0 363.9,162.9 363.9,363.9 v 1405.7 h -727.9 V 2373.5 c 0,-201 163,-363.9 364,-363.9"
         style="fill:#d14842;fill-opacity:1;fill-rule:nonzero;stroke:none"
         id="path116" /><path
         d="m 16613.7,2152.4 h 4446 v 137.7 h -4446 v -137.7"
         style="fill:#2b478b;fill-opacity:1;fill-rule:nonzero;stroke:none"
         id="path118" /><path
         d="m 20920.9,2177.5 h 138.8 v -479.9 h -138.8 v 479.9"
         style="fill:#2b478b;fill-opacity:1;fill-rule:nonzero;stroke:none"
         id="path120" /><path
         d="m 16613.7,2290.1 h 146.4 v -592.5 h -146.4 v 592.5"
         style="fill:#2b478b;fill-opacity:1;fill-rule:nonzero;stroke:none"
         id="path122" /><path
         d="m 18000,5451.1 v -102.5 c 0,0 -195.4,39.6 -489.9,39.6 -260.6,0 -449.6,-31 -489.8,-38.1 v 101 h 979.7"
         style="fill:#e0a575;fill-opacity:1;fill-rule:nonzero;stroke:none"
         id="path124" /><path
         d="m 18003.5,5412 h -988.1 c -26.1,0 -47.5,21.4 -47.5,47.5 0,26.1 21.4,47.5 47.5,47.5 h 988.1 c 26.2,0 47.5,-21.4 47.5,-47.5 0,-26.1 -21.3,-47.5 -47.5,-47.5"
         style="fill:#f7d2b0;fill-opacity:1;fill-rule:nonzero;stroke:none"
         id="path126" /><path
         d="m 19499,5451.1 v -102.5 c 0,0 -195.4,39.6 -489.9,39.6 -260.6,0 -449.6,-31 -489.8,-38.1 v 101 h 979.7"
         style="fill:#e0a575;fill-opacity:1;fill-rule:nonzero;stroke:none"
         id="path128" /><path
         d="m 19502.5,5412 h -988.1 c -26.1,0 -47.5,21.4 -47.5,47.5 0,26.1 21.4,47.5 47.5,47.5 h 988.1 c 26.2,0 47.5,-21.4 47.5,-47.5 0,-26.1 -21.3,-47.5 -47.5,-47.5"
         style="fill:#f7d2b0;fill-opacity:1;fill-rule:nonzero;stroke:none"
         id="path130" /><path
         d="m 21737.5,7485.6 c 81.8,262.7 437.6,311.9 580.8,76.9 25.7,-42.2 42,-90.8 43.4,-146.4 7.9,-308 -599.6,-1500.3 -680.2,-1605.7 -146.8,-192 -1032.9,-653.7 -1032.9,-653.7 l -188.2,27.4 c 0,0 106.4,66.9 216.6,177 227.7,227.2 559.6,596.7 620.4,647.9 104.3,87.8 284.8,977.8 440.1,1476.6"
         style="fill:#ed985f;fill-opacity:1;fill-rule:nonzero;stroke:none"
         id="path132" /><path
         d="m 21480.4,8992.5 c -5,19.8 429.8,-196.4 451.8,-220.9 203.9,-226.2 145.7,-521.3 29.1,-524.1 -74.8,-1.8 -60.3,-126.2 -60.3,-126.2 l -833.6,352.6 c 0,0 100.4,585.2 413,518.6"
         style="fill:#b5453c;fill-opacity:1;fill-rule:nonzero;stroke:none"
         id="path134" /><path
         d="m 21377.7,8946.9 c 0,0 -29.8,324.7 333,324.7 0,0 -109.9,-29.8 -166.8,-89.5 0,0 231.4,135.9 483.2,-72.9 251.9,-208.7 250.2,-475.2 295.8,-592.1 112.7,-289.1 526.2,-240 496.1,-758.6 -18.8,-322.9 -1228,-645.6 -1169.6,-911.5 0,0 -452.1,501.6 -11.9,816.5 169.8,121.4 190.8,407.5 177.6,457.8 -13.3,50.3 -437.4,825.6 -437.4,825.6"
         style="fill:#b5453c;fill-opacity:1;fill-rule:nonzero;stroke:none"
         id="path136" /><path
         d="m 22396.8,1925.8 180.4,26.5 c 0,0 606.5,482 696.8,1381.3 9.2,91.5 11.1,184.4 4.3,278.1 -0.8,10.8 0.4,21.6 6.3,30.6 l 0.2,0.3 c 19.4,29.7 67.7,104.3 133.1,210.3 64.5,104.5 174.8,301.9 296.2,523.5 218.7,399.1 473.3,876.4 560.6,1028.4 278.3,484.5 144.2,810.2 144.2,810.2 0,0 -776.3,76.8 -989,262.9 l -76.6,-118.1 c 0,0 -168.2,-744.6 -160.2,-748.1 -8.3,-25.3 -16.7,-51 -25.3,-77.3 -132.7,-409.7 -285.4,-921.7 -368.6,-1338.7 -46.8,-234.7 -71.6,-439.1 -58.3,-578.4 4.6,-47.8 -1,-121.2 -13.7,-211.9 -75.1,-534.4 -330.4,-1479.6 -330.4,-1479.6"
         style="fill:#2b478b;fill-opacity:1;fill-rule:nonzero;stroke:none"
         id="path138" /><path
         d="m 22018.4,1697.6 h 752.6 c 0,0 18,114.7 -21.3,201.7 -37.7,83.5 -91.4,86.1 -6.9,217 -47.8,-49.2 -201.5,-69.6 -310.3,-55 -13.3,-21.6 -85.9,-166.6 -130.5,-198.5 -49.1,-35.4 -268.4,-22.8 -283.6,-165.2"
         style="fill:#233862;fill-opacity:1;fill-rule:nonzero;stroke:none"
         id="path140" /><path
         d="m 23167.8,5534.4 c 65.7,-362.5 221,-965.9 546.3,-1158 218.7,399.1 473.3,876.4 560.6,1028.4 278.3,484.5 144.2,810.2 144.2,810.2 0,0 -776.3,76.8 -989,262.9 l -76.6,-118.1 c 0,0 -168.2,-744.6 -160.2,-748.1 -8.3,-25.3 -16.7,-51 -25.3,-77.3"
         style="fill:#233862;fill-opacity:1;fill-rule:nonzero;stroke:none"
         id="path142" /><path
         d="m 23695.6,6159.1 -2.6,140.7 c 280.5,-35.3 967,335.1 967,335.1 0,0 293.3,-195.1 333.5,-752.4 19.6,-271.9 143.6,-1422.2 157.3,-1765.7 5,-124.5 6.7,-213.3 7.2,-248.8 v -0.4 c 0.2,-10.8 5.3,-20.4 11.9,-28.9 58,-73.8 108.4,-151.9 152,-232.9 427.9,-796.2 204.1,-1878 204.1,-1878 l -99.3,25.3 c 0,0 -361.9,1121.4 -598.3,1606.5 -40.2,82.3 -76.6,146.3 -107.1,183.3 -88.9,108 -182.7,291.4 -275.1,512.1 -174.7,417.3 -344.3,967.9 -465.2,1394.3 -8.6,-1.6 -285.4,709.8 -285.4,709.8"
         style="fill:#2b478b;fill-opacity:1;fill-rule:nonzero;stroke:none"
         id="path144" /><path
         d="m 22180.6,7126.5 c 439.5,167.3 60.7,765 36,750.1 -64.7,4.1 -218.3,95.4 -371.9,293.9 l -14.7,-16.8 -244.8,-283.3 c 0,0 77.6,-86.2 144.8,-171.7 80.8,-102.7 236.8,-179.5 234.5,-205 -20,-20.7 98.8,-411.9 216.1,-367.2"
         style="fill:#ffb27d;fill-opacity:1;fill-rule:nonzero;stroke:none"
         id="path146" /><path
         d="m 21765.1,7577 c 0,0 -80.6,-159.1 -123.6,-296.9 -43,-137.8 -150.6,-576 -150.6,-576 0,0 221.9,-253.2 530.6,-238.4 0,0 166,259.8 107.5,494.4 -58.5,234.7 -363.9,616.9 -363.9,616.9"
         style="fill:#91cecf;fill-opacity:1;fill-rule:nonzero;stroke:none"
         id="path148" /><path
         d="m 21585.2,7870.3 c 0,0 24.4,-34.7 91.3,-105.7 117.2,154.7 171.3,252.8 182.6,356.7 l -273.9,-251"
         style="fill:#ed985f;fill-opacity:1;fill-rule:nonzero;stroke:none"
         id="path150" /><path
         d="m 21559.5,7793.6 c 0,0 425.1,236.5 273.7,498.9 -151.4,262.5 -198.4,469.7 -476.2,329.8 -277.8,-139.9 -272.3,-270.2 -243.1,-370 29.2,-99.9 331.2,-513.5 445.6,-458.7"
         style="fill:#ffb27d;fill-opacity:1;fill-rule:nonzero;stroke:none"
         id="path152" /><path
         d="m 21042.1,8405.3 c 19.5,116.5 78.7,127.7 119.9,119.9 157,259.6 413.5,158.3 413.5,158.3 136.9,-171.9 335,-201.3 335,-201.3 0,0 -49.4,-91.7 -252.6,-148.5 -62.1,-17.4 -132.5,-6.9 -200.5,16 141,-78.6 288.5,-108.7 288.5,-108.7 -267.8,-24.6 -522.6,220.3 -549.1,246.5 -12.3,-38 -34,-117.4 -21,-175.5 17.6,-78.9 87.7,-221.8 44.9,-240.3 0,0 -207.8,158.9 -178.6,333.6"
         style="fill:#b5453c;fill-opacity:1;fill-rule:nonzero;stroke:none"
         id="path154" /><path
         d="m 24927.6,1697.6 h 752.5 c 0,0 18.1,114.7 -21.3,201.7 -37.6,83.5 -96.6,121.4 -82.5,222.4 -47.8,-49.2 -125.7,-104.3 -234.5,-89.7 -13.4,-21.6 -86.1,-137.3 -130.6,-169.2 -49.2,-35.4 -268.5,-22.8 -283.6,-165.2"
         style="fill:#233862;fill-opacity:1;fill-rule:nonzero;stroke:none"
         id="path156" /><path
         d="m 22000.6,6587.7 c 96.9,-33.7 232.7,-52.3 371.7,-67.4 197.9,-21.6 402.2,-36.3 509.2,-79.1 21,-8.3 81.8,-33.7 142.8,-77.9 v -0.1 c 0,0 1.5,-0.9 4.2,-3.1 20.2,-14.8 40.4,-31.8 59,-51 28.4,-29.2 53.2,-63.3 69,-102.4 39.3,-97 -12.7,-365.8 -46,-512.7 -13.4,-59.2 14.5,-120.3 68.3,-148.2 75.3,-38.9 149.2,-74.9 221.9,-107.7 3.9,-1.7 7.6,-3.4 11.4,-5.1 -0.7,14.9 -0.9,29.8 -0.9,44.2 -0.1,101.5 12.7,185.8 12.7,185.8 17.9,-102.3 85.3,-212.9 148.2,-297.9 1009.9,-405.2 1715.5,-229.1 1703.9,-27.2 -39.8,700.9 -512.5,1297 -512.5,1297 -881.5,1025.1 -2664.7,1295 -2664.7,1295 0,0 -85.3,10.3 -188.4,-113.6 -148.2,-178.4 -155.6,-224.8 -155.6,-224.8 0,0 -39.1,-904.4 245.8,-1003.8"
         style="fill:#abddda;fill-opacity:1;fill-rule:nonzero;stroke:none"
         id="path158" /><path
         d="m 22372.4,6520.4 c 197.9,-21.7 402.2,-36.4 509.2,-79.1 43.7,653.5 -264.7,1145.1 -264.7,1145.1 0,0 -201.2,-818.7 -244.5,-1066"
         style="fill:#91cecf;fill-opacity:1;fill-rule:nonzero;stroke:none"
         id="path160" /><path
         d="m 23110.5,5694 c -13.4,-59.2 14.5,-120.3 68.3,-148.2 75.3,-38.9 149.2,-74.9 221.9,-107.7 3.9,12.4 7.3,25.4 10.5,39.1 11.5,51.2 16.7,112.4 12.7,185.8 -16.8,310.3 -228.1,545.2 -336.4,646.1 28.4,-29.2 53.2,-63.3 69,-102.4 39.3,-97 -12.7,-365.8 -46,-512.7"
         style="fill:#91cecf;fill-opacity:1;fill-rule:nonzero;stroke:none"
         id="path162" /><path
         d="m 22098.8,7929.9 c 0,0 -79.8,106.9 -132.3,103.7 0,0 -210,-305.8 -211.7,-442.1 0,0 264.7,352.2 344,338.4"
         style="fill:#91cecf;fill-opacity:1;fill-rule:nonzero;stroke:none"
         id="path164" /><path
         d="m 20062.9,5055.1 c 0,0 112.9,-2.1 137.3,1.5 23.8,3.4 55.8,13.8 87.9,14.9 31.6,1.2 60.7,-9.1 90.3,-15.2 4.5,-0.9 9,-1.2 13.5,-1.2 h 187.1 c 0,0 18.8,8.9 39.4,42 8.8,14.3 10,48.3 30.2,59.6 113.4,63.2 -188.2,27.4 -188.2,27.4 0,0 -189.4,3.5 -206.9,-9.6 -31.1,-23.4 -197.6,-110.5 -190.6,-119.4"
         style="fill:#ed985f;fill-opacity:1;fill-rule:nonzero;stroke:none"
         id="path166" /><path
         d="m 20579,5055 c 0,0 -114.9,-33.2 -146.1,-54.4 l -33,-20.9 c 0,0 -19,21.3 11,45 15.9,12.5 59.6,49 61,90.8 1.5,41.9 131.2,5.3 107.1,-60.5"
         style="fill:#ed985f;fill-opacity:1;fill-rule:nonzero;stroke:none"
         id="path168" /><path
         d="m 20324.2,7756 759.4,-2999.1 c 66.4,-262.2 -92.4,-528.6 -354.7,-595 -262.2,-66.4 -528.6,92.3 -595,354.5 l -759.4,2999.1 949.7,240.5"
         style="fill:#f7d2b0;fill-opacity:1;fill-rule:nonzero;stroke:none"
         id="path170" /><path
         d="m 20694.1,4299.6 v 0 c 194.8,49.3 312.8,247.3 263.4,442.1 l -302.7,1195.7 -748,-11.6 345.1,-1362.7 c 49.3,-194.9 247.3,-312.9 442.2,-263.5"
         style="fill:#d14842;fill-opacity:1;fill-rule:nonzero;stroke:none"
         id="path172" /><path
         d="m 20324.2,7756 25.1,-99.3 c 0,0 -199,-9.5 -484.6,-81.8 -252.6,-64 -428.2,-140.5 -465.4,-157.3 l -24.8,97.9 949.7,240.5"
         style="fill:#e0a575;fill-opacity:1;fill-rule:nonzero;stroke:none"
         id="path174" /><path
         d="m 20337.2,7719.1 -957.9,-242.6 c -25.3,-6.4 -51.3,9.1 -57.7,34.4 -6.4,25.3 9.1,51.2 34.4,57.7 l 957.9,242.5 c 25.3,6.4 51.3,-9 57.7,-34.4 6.4,-25.3 -9.1,-51.2 -34.4,-57.6"
         style="fill:#f7d2b0;fill-opacity:1;fill-rule:nonzero;stroke:none"
         id="path176" /><path
         d="m 21079.9,4718.3 c 0,0 -82.1,-73 -144.6,-88.4 -62.4,-15.4 -133.4,-194.2 -144.7,-219.8 -11.4,-25.5 59.6,11.4 88,54.9 28.3,43.6 47.7,60.6 56,51.1 8.3,-9.4 -5,-128.7 -52.3,-194.9 -47.3,-66.2 -75.6,-124.9 -41.6,-121.1 34.1,3.8 236.5,53 278.2,176 41.6,123 11.1,127.3 106.8,253.8 95.7,126.5 -145.8,88.4 -145.8,88.4"
         style="fill:#ffb27d;fill-opacity:1;fill-rule:nonzero;stroke:none"
         id="path178" /><path
         d="m 22164.6,7712.8 c 0,0 495.9,-49 535.7,-371.2 39.7,-322.2 -475.5,-1634.8 -549.3,-1753.6 -134.3,-216.4 -925.3,-958.1 -925.3,-958.1 l -145.8,88.4 c 0,0 561.1,949.8 647.9,1038.7 136.4,139.6 268.8,1844.2 436.8,1955.8"
         style="fill:#ffb27d;fill-opacity:1;fill-rule:nonzero;stroke:none"
         id="path180" /><path
         d="m 21910.5,7097.2 c 0,0 -51,830.9 585,630 635.9,-200.9 -98.7,-1630 -98.7,-1630 0,0 -373.3,18.4 -505.6,344.1 l 19.3,655.9"
         style="fill:#abddda;fill-opacity:1;fill-rule:nonzero;stroke:none"
         id="path182" /><path
         d="m 13379.7,1739.7 888,0.3 469.8,0.1 c 182.3,0.1 331.3,149.4 331.3,331.7 l -1,3281.5 c 0,182.3 -149.2,331.5 -331.6,331.4 l -416.5,-0.2 -941.2,-0.2 c -182.3,0 -331.4,-149.2 -331.4,-331.6 l 1,-3281.5 c 0,-182.3 149.2,-331.5 331.6,-331.5"
         style="fill:#aec3ff;fill-opacity:1;fill-rule:nonzero;stroke:none"
         id="path184" /><path
         d="m 14518.4,3348.4 c -5.2,-67.7 32.9,-134.5 98.8,-162 4.9,-2 9.8,-3.8 14.8,-5.3 0,-2.8 -0.1,-5.6 0,-8.4 l 5.6,-109.7 -1.4,1.9 -105.9,138.5 -87.8,114.7 c 27.6,3.4 53.7,14.1 75.9,30.3 M 13411,2497.8 c 25.8,10.3 48.5,27.1 66.1,48.6 l -2.4,-9.9 -12.5,-52.1 c -16.3,7.3 -33.6,11.7 -51.2,13.4 m 428.9,-0.4 c -15.3,-2 -30.4,-6.2 -44.8,-12.7 l 9,37.4 35.8,-24.7 m 639,-61.6 c -35.2,45.9 -90.6,67.6 -144.6,62.3 -8.8,37.9 -31,72.9 -65.4,96.6 l -51,35.2 c 8.1,13.7 14.3,28.6 18.2,44.3 1.8,-1.3 3.4,-2.8 5.3,-4 l 287,-198 c 3.6,-2.5 7.3,-4.7 11,-6.8 -7.5,-31.8 -5.6,-66.1 7.8,-98.4 l 18.3,-44.3 -86.6,113.1 m -205.6,570.8 33.6,-43.9 c -30.2,-5 -58.8,-18.4 -82.2,-39.6 l -11.8,149.7 c -0.4,5.2 -1.2,10.3 -2,15.4 l 62.4,-81.6 m -75.4,365.7 -0.5,-0.3 c -35.3,-27.1 -56.3,-66.1 -61.8,-107.3 -3.1,-23.5 -1,-47.7 6.4,-70.8 -10.3,7 -21.5,12.8 -33.3,17.3 0.8,1 1.6,1.9 2.3,2.9 38.6,56 36.7,128.1 1.2,181.6 l 85.7,-23.4 m -441,-565.9 c 41.6,-5.9 85.5,4 121.3,31.5 10.1,7.6 18.8,16.4 26.5,25.8 l 3.5,-43.6 c -43.5,4.8 -87.8,-8.3 -122,-36.8 -8.8,8.7 -18.5,16.5 -29.3,23.1 m 1.4,454.3 127.6,-87.9 c 11,-7.6 22.7,-13.5 34.8,-18 -14.6,-20.1 -24.5,-43.5 -28.7,-68.7 l -133.7,174.6 m 170.1,275.9 -42,29 40.8,33.7 c -3.8,-21.3 -3.2,-42.5 1.2,-62.7 m -368,-549.8 91,-118.8 c 12.4,-16.3 27.5,-29.4 44.1,-39.4 -38.3,5.4 -76.1,-3.2 -107.4,-22.5 -25.7,-15.7 -46.9,-38.7 -60.6,-66.6 l 31.6,232.3 c 0.7,5 1.1,10.1 1.3,15 m 1100.1,-212.5 -74.1,51.1 c 6.7,3.7 13.4,7.8 19.7,12.7 16.8,12.9 30.3,28.5 40.5,45.8 l 3,-59.4 c 0.9,-17.7 4.8,-34.5 10.9,-50.2 m -1330.7,-286.4 c 2,-0.3 3.9,-0.3 5.9,-0.5 -13.5,-5.4 -26.6,-12.5 -38.7,-21.8 -35.3,-27 -56.3,-66.1 -61.8,-107.2 -5.5,-41.1 4.7,-84.3 31.7,-119.6 l 211.9,-276.9 c 54.2,-70.7 156.2,-84.3 226.9,-30.1 70.7,54.1 84.3,156.1 30.1,226.8 l -37.7,49.3 c 12,10.5 22.5,22.7 31,36.5 1.3,-1.8 2.4,-3.7 3.8,-5.5 l 106,-138.5 105.9,-138.4 c 54.2,-70.7 156.2,-84.2 226.9,-30.1 70.7,54.1 84.3,156.2 30.1,226.9 l -105.9,138.4 -38.5,50.2 27.8,-19.1 c 32.7,-22.6 71,-31.3 107.8,-27.6 5,-21.8 14.5,-42.8 28.9,-61.6 l 106,-138.5 105.9,-138.4 c 54.1,-70.7 156.2,-84.3 226.9,-30.1 22.9,17.5 39.7,40.1 50.3,65 44.7,-48.3 116.5,-66.6 180.7,-40.1 41.1,17 71.5,49.3 87.4,87.6 15.9,38.3 17.3,82.7 0.3,123.7 l -66.6,161.2 -66.5,161.1 c -14.1,34.1 -38.8,60.7 -68.6,77.9 8.5,36.9 3.9,75.8 -12.9,109.4 17.3,-5.2 35.6,-7.8 54.6,-6.9 44.5,2.3 83.9,22.5 111.7,53.3 27.8,30.8 44,72.1 41.8,116.5 l -8.8,174.2 h -0.1 l -8.7,174.1 c -3.3,65.1 -45.2,119.4 -102.3,142.1 l 43.1,103.1 67.2,160.8 c 34.3,82.2 -4.8,177.4 -87,211.7 -82.1,34.3 -177.4,-4.8 -211.7,-86.9 l -67.2,-160.9 -17.6,-42.3 c -13.6,55.3 -55.9,101.9 -114.4,117.9 l -168.1,46 -168.2,46.1 c -14.4,3.9 -28.9,5.6 -43.1,5.5 55.2,58.4 59.7,150.8 7.3,214.2 -56.7,68.7 -159.2,78.4 -227.9,21.7 L 13596.7,3746 c -51.7,-42.7 -69.9,-111.4 -51.6,-172 -15.1,-31.5 -19.4,-66.3 -13.3,-99.2 4.6,-25.3 15.2,-49.4 31.2,-70.1 -32.7,-1 -65.5,-11.6 -93.4,-33 -13.5,-10.3 -24.9,-22.5 -34.2,-35.8 l 61.1,255.5 c 20.7,86.5 -33.1,174.3 -119.7,195 -43.3,10.4 -86.8,2.1 -122.2,-19.6 -35.3,-21.7 -62.5,-56.9 -72.8,-100.1 l -40.6,-169.6 -40.6,-169.5 c -20.7,-86.6 33.2,-174.3 119.7,-195 78.1,-18.7 156.9,23.3 186.9,95.2 2.5,-26.8 11.7,-53.1 27.8,-76.5 -4.7,1.1 -9.4,2 -14.3,2.7 -44.1,6 -86.6,-6.6 -119.7,-31.7 -33,-25.1 -56.5,-62.7 -62.5,-106.8 l -23.6,-172.7 -23.6,-172.7 c -12,-88.3 50.3,-170.2 138.5,-182.2"
         style="fill:#9db0f4;fill-opacity:1;fill-rule:nonzero;stroke:none"
         id="path186" /><path
         d="m 13068.9,5529.6 1261.2,0.4 715.8,0.2 c 35.5,0 64.5,29 64.5,64.5 l -0.1,309 c 0,35.4 -29,64.5 -64.5,64.4 l -714.8,-0.2 h -0.2 l -1262.1,-0.3 c -35.4,-0.1 -64.4,-29 -64.4,-64.5 l 0.1,-309 c 0,-35.5 29,-64.6 64.5,-64.5"
         style="fill:#2b478b;fill-opacity:1;fill-rule:nonzero;stroke:none"
         id="path188" /><path
         d="M 29228.5,1612.2 H 2469.46 c -22.39,0 -40.71,18.3 -40.71,40.7 v 46.1 c 0,22.4 18.32,40.7 40.71,40.7 H 29228.5 c 22.4,0 40.7,-18.3 40.7,-40.7 v -46.1 c 0,-22.4 -18.3,-40.7 -40.7,-40.7"
         style="fill:#2e3552;fill-opacity:1;fill-rule:nonzero;stroke:none"
         id="path190" /><path
         d="m 11035.8,1981.3 c 0,-65.8 26.9,-125.7 70.3,-169.1 43.5,-43.4 103.3,-70.3 169.1,-70.3 h 1130.5 c 131.6,0 239.3,107.7 239.3,239.4 0,65.8 -26.9,125.6 -70.2,169 -43.5,43.4 -103.3,70.3 -169.1,70.3 h -1130.5 c -131.6,0 -239.4,-107.7 -239.4,-239.3"
         style="fill:#2b478b;fill-opacity:1;fill-rule:nonzero;stroke:none"
         id="path192" /><path
         d="m 11619,1981.3 c 0,-65.8 26.9,-125.7 70.3,-169.1 43.4,-43.4 103.2,-70.3 169,-70.3 h 547.4 c 131.6,0 239.3,107.7 239.3,239.4 0,65.8 -26.9,125.6 -70.2,169 -43.5,43.4 -103.3,70.3 -169.1,70.3 h -547.4 c -131.6,0 -239.3,-107.7 -239.3,-239.3"
         style="fill:#699ff0;fill-opacity:1;fill-rule:nonzero;stroke:none"
         id="path194" /><path
         d="M 11646.3,2092 H 11256 c -18.6,0 -33.9,15.3 -33.9,34 v 7.6 c 0,18.7 15.3,33.9 33.9,33.9 h 452.4 c -25.5,-20.6 -46.7,-46.3 -62.1,-75.5"
         style="fill:#778cb9;fill-opacity:1;fill-rule:nonzero;stroke:none"
         id="path196" /><path
         d="m 12334.4,2092 h -688.1 c 15.4,29.2 36.6,54.9 62.1,75.5 h 626 c 18.6,0 33.9,-15.2 33.9,-33.9 v -7.6 c 0,-18.7 -15.3,-34 -33.9,-34"
         style="fill:#9cc1f6;fill-opacity:1;fill-rule:nonzero;stroke:none"
         id="path198" /><path
         d="m 12000.5,2659.3 c -31.3,-62.3 -34.2,-131.8 -13.6,-193.6 20.5,-61.8 64.4,-115.7 126.8,-147 l 1071.5,-537 c 124.8,-62.5 278,-11.5 340.6,113.3 31.2,62.4 34.1,131.9 13.6,193.6 -20.5,61.7 -64.4,115.6 -126.8,146.9 l -1071.5,537 c -124.8,62.5 -278.1,11.6 -340.6,-113.2"
         style="fill:#e8672e;fill-opacity:1;fill-rule:nonzero;stroke:none"
         id="path200" /><path
         d="m 12553.2,2367.1 c -31.2,-62.4 -34.1,-131.9 -13.6,-193.6 20.5,-61.8 64.4,-115.8 126.8,-147 l 518.8,-260 c 124.8,-62.6 278,-11.6 340.6,113.2 31.2,62.4 34.1,131.9 13.6,193.6 -20.5,61.7 -64.4,115.7 -126.8,146.9 l -518.8,260 c -124.8,62.6 -278,11.6 -340.6,-113.1"
         style="fill:#f78248;fill-opacity:1;fill-rule:nonzero;stroke:none"
         id="path202" /><path
         d="m 12644.8,2467.8 -383,191.9 c -17.6,8.9 -24.8,30.6 -16,48.3 l 3.6,7.2 c 6.3,12.6 19.1,19.8 32.3,19.8 5.4,0 10.9,-1.2 16,-3.8 l 451.5,-226.2 c -37,-4.6 -72.8,-17.3 -104.4,-37.2"
         style="fill:#f4a57d;fill-opacity:1;fill-rule:nonzero;stroke:none"
         id="path204" /><path
         d="m 13299.9,2143.7 c -5.4,0 -10.8,1.2 -16,3.8 l -639.1,320.3 c 31.6,19.9 67.4,32.6 104.4,37.2 l 570.6,-285.9 c 17.7,-8.9 24.9,-30.6 16,-48.3 l -3.6,-7.3 c -6.3,-12.5 -19.1,-19.8 -32.3,-19.8"
         style="fill:#fbb28a;fill-opacity:1;fill-rule:nonzero;stroke:none"
         id="path206" /></g></g></svg>
